<mxfile host="app.diagrams.net" modified="2022-09-26T19:37:19.828Z" agent="5.0 (Macintosh; Intel Mac OS X 10_15_7) AppleWebKit/537.36 (KHTML, like Gecko) Chrome/93.0.4577.82 Safari/537.36" etag="mxV_KJCv5HjNlEGsTwdc" version="20.2.8" type="github">
  <diagram id="G0EadhJeuNanMjFExjNU" name="Page-1">
    <mxGraphModel dx="1298" dy="658" grid="1" gridSize="10" guides="1" tooltips="1" connect="1" arrows="1" fold="1" page="1" pageScale="1" pageWidth="827" pageHeight="1169" math="0" shadow="0">
      <root>
        <mxCell id="0" />
        <mxCell id="1" parent="0" />
        <mxCell id="mn8tNYRDq0jIZV5DTbgO-18" style="edgeStyle=none;rounded=0;orthogonalLoop=1;jettySize=auto;html=1;" edge="1" parent="1" source="mn8tNYRDq0jIZV5DTbgO-4" target="mn8tNYRDq0jIZV5DTbgO-16">
          <mxGeometry relative="1" as="geometry" />
        </mxCell>
        <mxCell id="mn8tNYRDq0jIZV5DTbgO-19" style="edgeStyle=none;rounded=0;orthogonalLoop=1;jettySize=auto;html=1;" edge="1" parent="1" source="mn8tNYRDq0jIZV5DTbgO-4" target="mn8tNYRDq0jIZV5DTbgO-14">
          <mxGeometry relative="1" as="geometry" />
        </mxCell>
        <mxCell id="mn8tNYRDq0jIZV5DTbgO-4" value="Amazon Redshift" style="sketch=0;outlineConnect=0;fontColor=#232F3E;gradientColor=none;strokeColor=#ffffff;fillColor=#232F3E;dashed=0;verticalLabelPosition=middle;verticalAlign=bottom;align=center;html=1;whiteSpace=wrap;fontSize=10;fontStyle=1;spacing=3;shape=mxgraph.aws4.productIcon;prIcon=mxgraph.aws4.redshift;" vertex="1" parent="1">
          <mxGeometry x="570" y="310" width="80" height="110" as="geometry" />
        </mxCell>
        <mxCell id="mn8tNYRDq0jIZV5DTbgO-10" style="rounded=0;orthogonalLoop=1;jettySize=auto;html=1;" edge="1" parent="1" source="mn8tNYRDq0jIZV5DTbgO-5" target="mn8tNYRDq0jIZV5DTbgO-4">
          <mxGeometry relative="1" as="geometry">
            <mxPoint x="570" y="370" as="targetPoint" />
          </mxGeometry>
        </mxCell>
        <mxCell id="mn8tNYRDq0jIZV5DTbgO-5" value="OLTP Database (Sales)" style="sketch=0;outlineConnect=0;fontColor=#232F3E;gradientColor=none;strokeColor=#ffffff;fillColor=#232F3E;dashed=0;verticalLabelPosition=middle;verticalAlign=bottom;align=center;html=1;whiteSpace=wrap;fontSize=10;fontStyle=1;spacing=3;shape=mxgraph.aws4.productIcon;prIcon=mxgraph.aws4.rds;" vertex="1" parent="1">
          <mxGeometry x="140" y="70" width="80" height="120" as="geometry" />
        </mxCell>
        <mxCell id="mn8tNYRDq0jIZV5DTbgO-11" style="edgeStyle=none;rounded=0;orthogonalLoop=1;jettySize=auto;html=1;" edge="1" parent="1" source="mn8tNYRDq0jIZV5DTbgO-6" target="mn8tNYRDq0jIZV5DTbgO-4">
          <mxGeometry relative="1" as="geometry" />
        </mxCell>
        <mxCell id="mn8tNYRDq0jIZV5DTbgO-6" value="OLTP Database (Marketing)" style="sketch=0;outlineConnect=0;fontColor=#232F3E;gradientColor=none;strokeColor=#ffffff;fillColor=#232F3E;dashed=0;verticalLabelPosition=middle;verticalAlign=bottom;align=center;html=1;whiteSpace=wrap;fontSize=10;fontStyle=1;spacing=3;shape=mxgraph.aws4.productIcon;prIcon=mxgraph.aws4.rds;" vertex="1" parent="1">
          <mxGeometry x="140" y="230" width="80" height="120" as="geometry" />
        </mxCell>
        <mxCell id="mn8tNYRDq0jIZV5DTbgO-12" style="edgeStyle=none;rounded=0;orthogonalLoop=1;jettySize=auto;html=1;" edge="1" parent="1" source="mn8tNYRDq0jIZV5DTbgO-7" target="mn8tNYRDq0jIZV5DTbgO-4">
          <mxGeometry relative="1" as="geometry" />
        </mxCell>
        <mxCell id="mn8tNYRDq0jIZV5DTbgO-7" value="OLTP Database (Logistics)" style="sketch=0;outlineConnect=0;fontColor=#232F3E;gradientColor=none;strokeColor=#ffffff;fillColor=#232F3E;dashed=0;verticalLabelPosition=middle;verticalAlign=bottom;align=center;html=1;whiteSpace=wrap;fontSize=10;fontStyle=1;spacing=3;shape=mxgraph.aws4.productIcon;prIcon=mxgraph.aws4.rds;" vertex="1" parent="1">
          <mxGeometry x="140" y="390" width="80" height="120" as="geometry" />
        </mxCell>
        <mxCell id="mn8tNYRDq0jIZV5DTbgO-13" style="edgeStyle=none;rounded=0;orthogonalLoop=1;jettySize=auto;html=1;" edge="1" parent="1" source="mn8tNYRDq0jIZV5DTbgO-8" target="mn8tNYRDq0jIZV5DTbgO-4">
          <mxGeometry relative="1" as="geometry" />
        </mxCell>
        <mxCell id="mn8tNYRDq0jIZV5DTbgO-8" value="OLTP Database (Logistics)" style="sketch=0;outlineConnect=0;fontColor=#232F3E;gradientColor=none;strokeColor=#ffffff;fillColor=#232F3E;dashed=0;verticalLabelPosition=middle;verticalAlign=bottom;align=center;html=1;whiteSpace=wrap;fontSize=10;fontStyle=1;spacing=3;shape=mxgraph.aws4.productIcon;prIcon=mxgraph.aws4.rds;" vertex="1" parent="1">
          <mxGeometry x="140" y="600" width="80" height="120" as="geometry" />
        </mxCell>
        <mxCell id="mn8tNYRDq0jIZV5DTbgO-9" value=".&lt;br&gt;.&lt;br&gt;." style="text;html=1;align=center;verticalAlign=middle;resizable=0;points=[];autosize=1;strokeColor=none;fillColor=none;" vertex="1" parent="1">
          <mxGeometry x="160" y="520" width="30" height="60" as="geometry" />
        </mxCell>
        <mxCell id="mn8tNYRDq0jIZV5DTbgO-14" value="" style="verticalLabelPosition=bottom;sketch=0;aspect=fixed;html=1;verticalAlign=top;strokeColor=none;align=center;outlineConnect=0;shape=mxgraph.citrix.reporting;" vertex="1" parent="1">
          <mxGeometry x="835.5" y="441" width="61.5" height="69" as="geometry" />
        </mxCell>
        <mxCell id="mn8tNYRDq0jIZV5DTbgO-16" value="" style="points=[[0.35,0,0],[0.98,0.51,0],[1,0.71,0],[0.67,1,0],[0,0.795,0],[0,0.65,0]];verticalLabelPosition=bottom;sketch=0;html=1;verticalAlign=top;aspect=fixed;align=center;pointerEvents=1;shape=mxgraph.cisco19.user;fillColor=#005073;strokeColor=none;" vertex="1" parent="1">
          <mxGeometry x="827" y="210" width="100" height="100" as="geometry" />
        </mxCell>
        <mxCell id="mn8tNYRDq0jIZV5DTbgO-22" value="" style="ellipse;whiteSpace=wrap;html=1;dashed=1;fillColor=none;" vertex="1" parent="1">
          <mxGeometry x="390" y="160" width="30" height="440" as="geometry" />
        </mxCell>
        <mxCell id="mn8tNYRDq0jIZV5DTbgO-24" value="Scheduled Sync" style="text;html=1;strokeColor=none;fillColor=none;align=center;verticalAlign=middle;whiteSpace=wrap;rounded=0;dashed=1;" vertex="1" parent="1">
          <mxGeometry x="375" y="115" width="60" height="30" as="geometry" />
        </mxCell>
        <mxCell id="mn8tNYRDq0jIZV5DTbgO-26" value="Automated Reporting" style="text;html=1;strokeColor=none;fillColor=none;align=center;verticalAlign=middle;whiteSpace=wrap;rounded=0;dashed=1;" vertex="1" parent="1">
          <mxGeometry x="690" y="435" width="60" height="30" as="geometry" />
        </mxCell>
        <mxCell id="mn8tNYRDq0jIZV5DTbgO-27" value="Complex Analytics" style="text;html=1;strokeColor=none;fillColor=none;align=center;verticalAlign=middle;whiteSpace=wrap;rounded=0;dashed=1;" vertex="1" parent="1">
          <mxGeometry x="690" y="250" width="60" height="30" as="geometry" />
        </mxCell>
        <mxCell id="mn8tNYRDq0jIZV5DTbgO-28" value="" style="rounded=1;whiteSpace=wrap;html=1;dashed=1;fillColor=none;" vertex="1" parent="1">
          <mxGeometry y="50" width="270" height="150" as="geometry" />
        </mxCell>
        <mxCell id="mn8tNYRDq0jIZV5DTbgO-30" value="" style="rounded=1;whiteSpace=wrap;html=1;dashed=1;fillColor=none;" vertex="1" parent="1">
          <mxGeometry y="210" width="270" height="150" as="geometry" />
        </mxCell>
        <mxCell id="mn8tNYRDq0jIZV5DTbgO-32" value="" style="rounded=1;whiteSpace=wrap;html=1;dashed=1;fillColor=none;" vertex="1" parent="1">
          <mxGeometry y="375" width="270" height="150" as="geometry" />
        </mxCell>
        <mxCell id="mn8tNYRDq0jIZV5DTbgO-34" value="" style="rounded=1;whiteSpace=wrap;html=1;dashed=1;fillColor=none;" vertex="1" parent="1">
          <mxGeometry y="580" width="270" height="150" as="geometry" />
        </mxCell>
        <mxCell id="mn8tNYRDq0jIZV5DTbgO-36" value="" style="sketch=0;outlineConnect=0;fontColor=#232F3E;gradientColor=none;fillColor=#232F3D;strokeColor=none;dashed=0;verticalLabelPosition=bottom;verticalAlign=top;align=center;html=1;fontSize=12;fontStyle=0;aspect=fixed;pointerEvents=1;shape=mxgraph.aws4.users;" vertex="1" parent="1">
          <mxGeometry x="30" y="82" width="78" height="78" as="geometry" />
        </mxCell>
        <mxCell id="mn8tNYRDq0jIZV5DTbgO-37" value="" style="sketch=0;outlineConnect=0;fontColor=#232F3E;gradientColor=none;fillColor=#232F3D;strokeColor=none;dashed=0;verticalLabelPosition=bottom;verticalAlign=top;align=center;html=1;fontSize=12;fontStyle=0;aspect=fixed;pointerEvents=1;shape=mxgraph.aws4.users;" vertex="1" parent="1">
          <mxGeometry x="30" y="236" width="78" height="78" as="geometry" />
        </mxCell>
        <mxCell id="mn8tNYRDq0jIZV5DTbgO-38" value="" style="sketch=0;outlineConnect=0;fontColor=#232F3E;gradientColor=none;fillColor=#232F3D;strokeColor=none;dashed=0;verticalLabelPosition=bottom;verticalAlign=top;align=center;html=1;fontSize=12;fontStyle=0;aspect=fixed;pointerEvents=1;shape=mxgraph.aws4.users;" vertex="1" parent="1">
          <mxGeometry x="30" y="400" width="78" height="78" as="geometry" />
        </mxCell>
        <mxCell id="mn8tNYRDq0jIZV5DTbgO-39" value="" style="sketch=0;outlineConnect=0;fontColor=#232F3E;gradientColor=none;fillColor=#232F3D;strokeColor=none;dashed=0;verticalLabelPosition=bottom;verticalAlign=top;align=center;html=1;fontSize=12;fontStyle=0;aspect=fixed;pointerEvents=1;shape=mxgraph.aws4.users;" vertex="1" parent="1">
          <mxGeometry x="30" y="610" width="78" height="78" as="geometry" />
        </mxCell>
        <mxCell id="mn8tNYRDq0jIZV5DTbgO-42" value="Daily Business Operations" style="text;html=1;strokeColor=none;fillColor=none;align=center;verticalAlign=middle;whiteSpace=wrap;rounded=0;dashed=1;" vertex="1" parent="1">
          <mxGeometry x="30" y="10" width="210" height="30" as="geometry" />
        </mxCell>
      </root>
    </mxGraphModel>
  </diagram>
</mxfile>
